<mxfile host="app.diagrams.net" modified="2024-05-28T12:25:52.888Z" agent="Mozilla/5.0 (Windows NT 10.0; Win64; x64) AppleWebKit/537.36 (KHTML, like Gecko) Chrome/123.0.0.0 Safari/537.36 OPR/109.0.0.0 (Edition Yx GX)" etag="n0EIIr2D-RoAFkK4CO0P" version="24.4.9" type="device">
  <diagram id="prtHgNgQTEPvFCAcTncT" name="Page-1">
    <mxGraphModel dx="2220" dy="1935" grid="1" gridSize="10" guides="1" tooltips="1" connect="1" arrows="1" fold="1" page="1" pageScale="1" pageWidth="827" pageHeight="1169" math="0" shadow="0">
      <root>
        <mxCell id="0" />
        <mxCell id="1" parent="0" />
        <mxCell id="Dah184BbcCgfubUvgjhO-2" style="edgeStyle=orthogonalEdgeStyle;rounded=0;orthogonalLoop=1;jettySize=auto;html=1;entryX=0.5;entryY=0;entryDx=0;entryDy=0;" edge="1" parent="1" source="Dah184BbcCgfubUvgjhO-1" target="Dah184BbcCgfubUvgjhO-3">
          <mxGeometry relative="1" as="geometry">
            <mxPoint x="280" y="340" as="targetPoint" />
          </mxGeometry>
        </mxCell>
        <mxCell id="Dah184BbcCgfubUvgjhO-1" value="Склад" style="rounded=0;whiteSpace=wrap;html=1;" vertex="1" parent="1">
          <mxGeometry x="220" y="200" width="120" height="60" as="geometry" />
        </mxCell>
        <mxCell id="Dah184BbcCgfubUvgjhO-6" style="edgeStyle=orthogonalEdgeStyle;rounded=0;orthogonalLoop=1;jettySize=auto;html=1;" edge="1" parent="1" source="Dah184BbcCgfubUvgjhO-3" target="Dah184BbcCgfubUvgjhO-5">
          <mxGeometry relative="1" as="geometry" />
        </mxCell>
        <mxCell id="Dah184BbcCgfubUvgjhO-7" style="edgeStyle=orthogonalEdgeStyle;rounded=0;orthogonalLoop=1;jettySize=auto;html=1;entryX=0.5;entryY=0;entryDx=0;entryDy=0;" edge="1" parent="1" source="Dah184BbcCgfubUvgjhO-3" target="Dah184BbcCgfubUvgjhO-4">
          <mxGeometry relative="1" as="geometry" />
        </mxCell>
        <mxCell id="Dah184BbcCgfubUvgjhO-3" value="Заведующий складом" style="rounded=0;whiteSpace=wrap;html=1;" vertex="1" parent="1">
          <mxGeometry x="220" y="320" width="120" height="60" as="geometry" />
        </mxCell>
        <mxCell id="Dah184BbcCgfubUvgjhO-4" value="Кладовщики" style="rounded=0;whiteSpace=wrap;html=1;" vertex="1" parent="1">
          <mxGeometry x="150" y="440" width="120" height="60" as="geometry" />
        </mxCell>
        <mxCell id="Dah184BbcCgfubUvgjhO-5" value="Грузчики" style="rounded=0;whiteSpace=wrap;html=1;" vertex="1" parent="1">
          <mxGeometry x="320" y="440" width="120" height="60" as="geometry" />
        </mxCell>
        <mxCell id="Dah184BbcCgfubUvgjhO-9" style="edgeStyle=orthogonalEdgeStyle;rounded=0;orthogonalLoop=1;jettySize=auto;html=1;entryX=0.5;entryY=0;entryDx=0;entryDy=0;" edge="1" parent="1" source="Dah184BbcCgfubUvgjhO-8" target="Dah184BbcCgfubUvgjhO-1">
          <mxGeometry relative="1" as="geometry" />
        </mxCell>
        <mxCell id="Dah184BbcCgfubUvgjhO-8" value="Аэропорт" style="rounded=0;whiteSpace=wrap;html=1;" vertex="1" parent="1">
          <mxGeometry x="380" y="80" width="120" height="60" as="geometry" />
        </mxCell>
        <mxCell id="Dah184BbcCgfubUvgjhO-11" style="edgeStyle=orthogonalEdgeStyle;rounded=0;orthogonalLoop=1;jettySize=auto;html=1;" edge="1" parent="1" source="Dah184BbcCgfubUvgjhO-10" target="Dah184BbcCgfubUvgjhO-8">
          <mxGeometry relative="1" as="geometry" />
        </mxCell>
        <mxCell id="Dah184BbcCgfubUvgjhO-13" style="edgeStyle=orthogonalEdgeStyle;rounded=0;orthogonalLoop=1;jettySize=auto;html=1;" edge="1" parent="1" source="Dah184BbcCgfubUvgjhO-10" target="Dah184BbcCgfubUvgjhO-12">
          <mxGeometry relative="1" as="geometry" />
        </mxCell>
        <mxCell id="Dah184BbcCgfubUvgjhO-22" style="edgeStyle=orthogonalEdgeStyle;rounded=0;orthogonalLoop=1;jettySize=auto;html=1;" edge="1" parent="1" source="Dah184BbcCgfubUvgjhO-10" target="Dah184BbcCgfubUvgjhO-18">
          <mxGeometry relative="1" as="geometry" />
        </mxCell>
        <mxCell id="Dah184BbcCgfubUvgjhO-10" value="Директор" style="rounded=0;whiteSpace=wrap;html=1;" vertex="1" parent="1">
          <mxGeometry x="10" y="-10" width="120" height="60" as="geometry" />
        </mxCell>
        <mxCell id="Dah184BbcCgfubUvgjhO-15" style="edgeStyle=orthogonalEdgeStyle;rounded=0;orthogonalLoop=1;jettySize=auto;html=1;" edge="1" parent="1" source="Dah184BbcCgfubUvgjhO-12" target="Dah184BbcCgfubUvgjhO-14">
          <mxGeometry relative="1" as="geometry" />
        </mxCell>
        <mxCell id="Dah184BbcCgfubUvgjhO-12" value="Бухгалтерия" style="rounded=0;whiteSpace=wrap;html=1;" vertex="1" parent="1">
          <mxGeometry x="10" y="90" width="120" height="60" as="geometry" />
        </mxCell>
        <mxCell id="Dah184BbcCgfubUvgjhO-17" style="edgeStyle=orthogonalEdgeStyle;rounded=0;orthogonalLoop=1;jettySize=auto;html=1;" edge="1" parent="1" source="Dah184BbcCgfubUvgjhO-14" target="Dah184BbcCgfubUvgjhO-16">
          <mxGeometry relative="1" as="geometry" />
        </mxCell>
        <mxCell id="Dah184BbcCgfubUvgjhO-14" value="Главный бухгалтер" style="rounded=0;whiteSpace=wrap;html=1;" vertex="1" parent="1">
          <mxGeometry x="10" y="180" width="120" height="60" as="geometry" />
        </mxCell>
        <mxCell id="Dah184BbcCgfubUvgjhO-16" value="Логисты" style="rounded=0;whiteSpace=wrap;html=1;" vertex="1" parent="1">
          <mxGeometry x="10" y="270" width="120" height="60" as="geometry" />
        </mxCell>
        <mxCell id="Dah184BbcCgfubUvgjhO-21" style="edgeStyle=orthogonalEdgeStyle;rounded=0;orthogonalLoop=1;jettySize=auto;html=1;" edge="1" parent="1" source="Dah184BbcCgfubUvgjhO-18" target="Dah184BbcCgfubUvgjhO-20">
          <mxGeometry relative="1" as="geometry" />
        </mxCell>
        <mxCell id="Dah184BbcCgfubUvgjhO-18" value="Отдел доставки" style="rounded=0;whiteSpace=wrap;html=1;" vertex="1" parent="1">
          <mxGeometry x="-170" y="90" width="120" height="60" as="geometry" />
        </mxCell>
        <mxCell id="Dah184BbcCgfubUvgjhO-20" value="Перевозчики" style="rounded=0;whiteSpace=wrap;html=1;" vertex="1" parent="1">
          <mxGeometry x="-170" y="190" width="120" height="60" as="geometry" />
        </mxCell>
      </root>
    </mxGraphModel>
  </diagram>
</mxfile>
